<svg width="318" height="393" viewBox="0 0 318 393" fill="none" xmlns="http://www.w3.org/2000/svg">
<path d="M209 297.933C209 264.6 209.4 232.867 209.8 227.267L210.733 217L205.4 217C198.467 217 187.4 211.4 182.333 205.267C174.867 196.067 174.333 192.6 174.333 146.733L174.333 105L105.667 105L37.0001 105L37.0001 159.533C37.0001 202.067 37.4 216.6 39.0001 225.8C46.3334 269 71 306.733 107.667 330.867C133.667 348.067 167.267 358.333 197.267 358.333L209 358.333L209 297.933Z" fill="white"/>
<rect width="210" height="83" rx="41.5" fill="white"/>
<rect x="318" y="183" width="210" height="83" rx="41.5" transform="rotate(90 318 183)" fill="white"/>
</svg>
