<svg width="228" height="393" viewBox="0 0 228 393" fill="none" xmlns="http://www.w3.org/2000/svg">
<path d="M150.748 1.03156C149.219 2.03051 9.55351 188.142 2.21077 199.054C-0.848704 203.434 -0.69573 207.43 2.44023 210.426L4.81132 212.655H50.2445C93.0007 212.655 95.6777 212.732 95.6777 213.961C95.6777 214.73 88.7939 253.227 80.3804 299.563C71.9668 345.976 65.083 384.704 65.083 385.78C65.083 390.929 72.1963 394.771 76.862 392.158C80.3039 390.237 228 159.326 228 155.868C228 152.564 226.241 149.337 223.793 148.261C222.34 147.57 210.714 147.339 179.737 147.339H137.746L138.128 145.572C139.352 140.116 162.986 8.48525 162.986 7.02525C162.986 6.0263 162.068 4.10525 160.921 2.87577C158.32 -0.0442267 153.655 -0.88949 150.748 1.03156ZM130.097 98.16C124.666 128.359 120.154 154.178 120.154 155.561C120.154 158.788 121.148 160.786 123.442 162.093C124.743 162.861 134.686 163.168 165.051 163.476L204.977 163.86L147.153 254.303C115.335 304.097 89.1763 344.746 89.0999 344.593C88.9469 344.516 94.5304 313.087 101.491 274.897C109.139 232.634 113.958 204.433 113.652 202.973C113.423 201.666 112.352 199.745 111.281 198.746L109.292 196.902L66.9187 196.518L24.5449 196.134L82.0631 119.138C113.729 76.7979 139.734 42.3726 139.887 42.7568C140.04 43.141 135.604 68.0379 130.097 98.16Z" fill="white"/>
<path d="M218 157.5C220.4 157.5 127.667 306.167 81 380.5L103 204H13L153 17L128 157.5H218Z" fill="white"/>
</svg>
